<svg width="136" height="40" viewBox="0 0 136 40" fill="none" xmlns="http://www.w3.org/2000/svg">
<path d="M21.2842 7.65105C16.4161 2.78298 8.5219 2.78298 3.65104 7.65105C-1.21701 12.5219 -1.21701 20.4133 3.65104 25.2842C8.5219 30.155 16.4161 30.155 21.2842 25.2842C26.155 20.4133 26.1523 12.5219 21.2842 7.65105Z" fill="white"/>
<path fill-rule="evenodd" clip-rule="evenodd" d="M35.4793 28.6169C34.8607 27.9509 34.0247 27.6194 32.9687 27.6194H29.126V34.8058H33.1609C34.061 34.8058 34.8161 34.4881 35.4264 33.8528C36.0784 33.1701 36.4072 32.3174 36.4072 31.292C36.4072 30.1746 36.0979 29.2829 35.4793 28.6169ZM34.7324 33.0391C34.3451 33.5017 33.8491 33.733 33.2444 33.733H30.1318V28.6922H33.0521C33.7265 28.6922 34.2726 28.9262 34.6906 29.3999C35.1086 29.8709 35.3176 30.4923 35.3176 31.2613C35.3176 31.9858 35.1225 32.5794 34.7324 33.0391Z" fill="#757575"/>
<path d="M44.0775 34.8058H37.7188V27.6194H43.8435V28.6922H38.7246V30.5368H42.283V31.6097H38.7246V33.733H44.0775V34.8058Z" fill="#757575"/>
<path d="M51.7663 28.6922H46.6475V30.5368H50.2059V31.6097H46.6475V34.8058H45.6416V27.6194H51.7663V28.6922Z" fill="#757575"/>
<path d="M59.3062 34.8058H52.9473V27.6194H59.0721V28.6922H53.956V30.5368H57.5117V31.6097H53.956V33.733H59.3062V34.8058Z" fill="#757575"/>
<path d="M67.6769 34.8058H66.423L61.7862 28.9123V34.8058H60.7803V27.6194H62.0314L66.6682 33.5156V27.6194H67.6769V34.8058Z" fill="#757575"/>
<path d="M76.3429 29.2579L75.4289 29.6452C74.8131 28.8706 73.9521 28.4833 72.843 28.4833C72.0043 28.4833 71.3216 28.7368 70.7921 29.2468C70.2655 29.7567 70.0008 30.406 70.0008 31.1918C70.0008 32.0054 70.2627 32.6631 70.7838 33.1618C71.3076 33.6634 72.0126 33.9114 72.9043 33.9114C73.9771 33.9114 74.8215 33.5185 75.4373 32.7299L76.3011 33.2956C75.8636 33.8975 75.3704 34.3322 74.8187 34.6025C74.2697 34.87 73.6093 35.0037 72.843 35.0037C71.7702 35.0037 70.8785 34.6861 70.168 34.0507C69.3543 33.3235 68.9502 32.3705 68.9502 31.1918C68.9502 30.0354 69.3626 29.0879 70.1847 28.3551C70.9008 27.7114 71.7869 27.3909 72.843 27.3909C74.3645 27.3909 75.532 28.0123 76.3429 29.2579Z" fill="#757575"/>
<path d="M84.0668 34.8058H77.708V27.6194H83.8327V28.6922H78.7139V30.5368H82.2723V31.6097H78.7139V33.733H84.0668V34.8058Z" fill="#757575"/>
<path fill-rule="evenodd" clip-rule="evenodd" d="M92.0677 34.1203C92.756 34.5494 93.4916 34.7891 94.2746 34.8337V33.733C93.7758 33.733 93.2993 33.6132 92.8479 33.3763C93.408 32.6936 93.7981 31.9217 94.0211 31.0523H92.99C92.7504 31.8744 92.4606 32.4428 92.1179 32.7605C91.6748 32.3174 91.2707 31.8186 90.9029 31.2613C91.9534 30.8963 92.4773 30.2442 92.4773 29.2968C92.4773 28.759 92.3268 28.3271 92.0231 27.9899C91.7166 27.6583 91.3209 27.4912 90.8333 27.4912C90.2147 27.4912 89.7214 27.767 89.3592 28.3243C89.1391 28.6559 89.0304 29.021 89.0304 29.425C89.0304 29.8291 89.1335 30.2275 89.3425 30.6176C87.9325 31.0133 87.2275 31.735 87.2275 32.78C87.2275 33.3958 87.4532 33.9085 87.9074 34.3181C88.3588 34.7278 88.9496 34.934 89.6769 34.934C90.5992 34.934 91.3961 34.6637 92.0677 34.1203ZM90.3318 30.3975C91.1092 30.2861 91.4965 29.9099 91.4965 29.2662C91.4965 29.0544 91.4324 28.8733 91.3015 28.7256C91.1677 28.5779 91.0033 28.5027 90.7999 28.5027C90.5714 28.5027 90.3847 28.5891 90.2398 28.759C90.0921 28.9318 90.0225 29.1547 90.0225 29.425C90.0225 29.6981 90.1256 30.0213 90.3318 30.3975ZM91.3542 33.407C90.8331 32.8497 90.3538 32.2255 89.9108 31.5316C88.799 31.7351 88.2417 32.1642 88.2417 32.819C88.2417 33.1367 88.3782 33.3986 88.6541 33.5992C88.9271 33.7999 89.3005 33.903 89.777 33.903C90.2424 33.903 90.769 33.7358 91.3542 33.407Z" fill="#757575"/>
<path d="M103.905 29.3051C103.005 28.7645 102.088 28.4914 101.155 28.4914C100.533 28.4914 100.057 28.5778 99.7285 28.7506C99.3969 28.9233 99.2325 29.1602 99.2325 29.4667C99.2325 29.7816 99.408 30.0157 99.7619 30.1606C100.012 30.2664 100.425 30.3389 100.993 30.3779C101.832 30.4447 102.387 30.4977 102.654 30.5367C103.418 30.6566 103.978 30.8767 104.343 31.2027C104.705 31.526 104.886 31.9857 104.886 32.582C104.886 33.3428 104.602 33.9307 104.031 34.3487C103.459 34.7639 102.643 34.9729 101.573 34.9729C100.024 34.9729 98.8201 34.5688 97.959 33.7635L98.5108 32.8997C99.4638 33.588 100.486 33.9307 101.581 33.9307C102.292 33.9307 102.844 33.8165 103.234 33.5852C103.61 33.3595 103.797 33.0502 103.797 32.6601C103.797 32.2059 103.551 31.8993 103.058 31.7489C102.802 31.6681 102.108 31.5845 100.979 31.5009C99.9765 31.4201 99.2743 31.2612 98.873 31.0244C98.4021 30.7457 98.168 30.2776 98.168 29.6228C98.168 28.9484 98.4355 28.4162 98.9678 28.0261C99.5028 27.636 100.255 27.4409 101.23 27.4409C102.537 27.4409 103.635 27.7948 104.518 28.5026L103.905 29.3051Z" fill="#757575"/>
<path fill-rule="evenodd" clip-rule="evenodd" d="M112.702 28.2296C112.337 27.8228 111.846 27.6194 111.225 27.6194H106.41V34.8058H107.416V32.0666H111.033C111.754 32.0666 112.303 31.8772 112.679 31.501C113.058 31.122 113.248 30.5759 113.248 29.8625C113.248 29.1826 113.064 28.6364 112.702 28.2296ZM112.214 29.882C112.214 30.6232 111.827 30.9938 111.05 30.9938H107.416V28.6922H110.983C111.805 28.6922 112.214 29.0878 112.214 29.882Z" fill="#757575"/>
<path fill-rule="evenodd" clip-rule="evenodd" d="M119.546 34.8058H120.646L117.433 27.6194H116.166L112.953 34.8058H114.053L114.753 33.198H118.843L119.546 34.8058ZM116.809 28.6448L118.356 32.1252H115.243L116.809 28.6448Z" fill="#757575"/>
<path d="M128.326 29.2579L127.409 29.6452C126.796 28.8706 125.932 28.4833 124.826 28.4833C123.987 28.4833 123.304 28.7368 122.775 29.2468C122.248 29.7567 121.983 30.406 121.983 31.1918C121.983 32.0054 122.243 32.6631 122.766 33.1618C123.29 33.6634 123.995 33.9114 124.884 33.9114C125.96 33.9114 126.801 33.5185 127.417 32.7299L128.281 33.2956C127.846 33.8975 127.353 34.3322 126.801 34.6025C126.252 34.87 125.592 35.0037 124.826 35.0037C123.753 35.0037 122.861 34.6861 122.151 34.0507C121.34 33.3235 120.933 32.3705 120.933 31.1918C120.933 30.0354 121.345 29.0879 122.167 28.3551C122.883 27.7114 123.77 27.3909 124.826 27.3909C126.347 27.3909 127.512 28.0123 128.326 29.2579Z" fill="#757575"/>
<path d="M136 34.8058H129.641V27.6194H135.766V28.6922H130.647V30.5368H134.203V31.6097H130.647V33.733H136V34.8058Z" fill="#757575"/>
<path fill-rule="evenodd" clip-rule="evenodd" d="M3.65104 7.65105C8.5219 2.78298 16.4161 2.78298 21.2842 7.65105C26.1523 12.5218 26.155 20.4133 21.2842 25.2841C16.4161 30.155 8.5219 30.155 3.65104 25.2841C-1.21701 20.4133 -1.21701 12.5218 3.65104 7.65105ZM13.3149 25.0139C14.4323 25.0139 15.4717 24.8495 16.2352 24.5542C19.6041 23.2501 21.6466 20.2601 21.8445 16.2948C21.9922 13.3133 20.5487 10.3902 17.9851 8.4731C16.4915 7.3557 14.8754 6.85693 12.9164 6.69809C12.6434 6.67576 12.3647 6.66184 12.086 6.66184C10.807 6.66184 9.57261 6.91264 8.17934 7.38914C8.11235 7.41143 8.11521 7.47275 8.11806 7.48944C8.12642 7.5368 8.17098 7.58695 8.24067 7.57304L8.58342 7.49223C8.89829 7.42257 9.23546 7.36404 9.61722 7.31389C10.4448 7.20803 11.239 7.18292 12.0833 7.2693C14.0784 7.47551 15.7392 8.07741 17.1436 9.28955C17.8291 9.88586 18.4143 10.5824 18.8768 11.3655C19.2363 11.9757 19.5233 12.6668 19.7825 13.5417C19.8428 13.7117 19.8734 13.8952 19.9036 14.0763L19.9051 14.0851C19.9106 14.1297 19.919 14.1743 19.9273 14.2189C20.2394 16.0106 19.8577 18.0671 18.7598 19.6164C17.7037 21.1072 16.3048 21.9069 14.8085 22.2329C14.2735 22.3472 13.836 22.4001 13.4292 22.4001C12.8886 22.4001 12.3619 22.3221 11.7377 22.1855C10.6148 21.9375 9.63669 21.3775 8.87596 20.43C8.24342 19.6414 7.88953 18.7303 7.78086 17.8358C7.66382 16.9079 7.79479 15.9019 8.23785 15.0019C8.62239 14.2189 9.0961 13.5334 9.79552 13.0179C9.94228 12.9102 10.1599 12.7769 10.2505 12.7214L10.2804 12.703C10.2895 12.6969 10.3019 12.6897 10.3158 12.6817C10.3904 12.6384 10.5099 12.5692 10.4253 12.494C10.3751 12.4523 10.0268 12.494 10.0073 12.4969C9.78716 12.5414 9.5921 12.5916 9.41097 12.6529C7.87281 13.1768 6.68854 14.4892 6.0755 16.2559C5.46247 18.0309 5.73555 20.0818 6.80557 21.7426C7.8338 23.3337 9.42212 24.4065 11.3671 24.8245C11.9411 24.9471 12.6127 25.0139 13.3149 25.0139ZM15.1875 14.2328C14.2289 12.7782 12.27 12.3742 10.8154 13.3328C9.35804 14.2913 8.95678 16.2475 9.91534 17.7048C10.8739 19.1622 12.8301 19.5634 14.2874 18.6049C15.742 17.6491 16.146 15.6902 15.1875 14.2328ZM15.1396 26.2483C14.8889 26.2957 14.6408 26.3375 14.3928 26.3737C13.3981 26.5075 12.3866 26.5381 11.389 26.4294C9.61395 26.2399 7.8668 25.613 6.41781 24.5569C3.74274 22.6063 2.26588 19.1427 2.75631 15.8601C3.01267 14.1436 3.81519 12.5247 5.00225 11.2624C6.20882 9.98338 7.79713 9.16136 9.4997 8.75173C11.3723 8.30032 13.3953 8.48701 15.1146 9.38985C16.544 10.1422 17.628 11.1035 18.3386 12.7949C18.8792 14.0795 19.0018 15.5731 18.698 16.9329C18.3525 18.4795 17.4246 19.8309 16.062 20.653C14.6186 21.5251 12.629 21.6589 11.0936 20.9455C10.3329 20.5944 9.68362 20.0427 9.22942 19.3349C8.99534 18.9727 8.81701 18.5798 8.72784 18.159C8.68325 17.9556 8.65539 17.7494 8.64146 17.5655C8.63575 17.5014 8.62191 17.2729 8.67491 17.2199C8.74175 17.1503 8.79474 17.2366 8.81146 17.2952C8.87273 17.5488 8.95078 17.7689 9.03159 17.9389C9.12076 18.1256 9.22944 18.2983 9.35483 18.4627C9.59725 18.7776 9.8564 19.0563 10.1824 19.2848C10.8456 19.7529 11.6426 20.0288 12.4507 20.0483C14.3093 20.0873 15.6217 19.3043 16.3657 17.7076C17.0345 16.2725 16.8534 14.5449 16.0982 13.1795C15.2344 11.6218 13.7798 10.6493 11.846 10.4236C10.0765 10.2174 8.25136 10.68 6.82745 11.7333C5.4314 12.7643 4.44775 14.2913 4.08272 15.9855C3.70097 17.7355 3.97683 19.5913 4.7487 21.1963C5.48713 22.7317 6.68254 23.994 8.15941 24.8383C9.77838 25.7634 11.6537 26.1842 13.5095 26.1954C14.0139 26.1954 14.5183 26.1591 15.0226 26.109C15.0428 26.1073 15.0635 26.105 15.0843 26.1028C15.1989 26.0905 15.3137 26.0781 15.3208 26.1536C15.3236 26.2065 15.251 26.2288 15.1396 26.2483Z" fill="#757575"/>
<path fill-rule="evenodd" clip-rule="evenodd" d="M106.07 14.8738C103.083 14.2245 102.072 13.9375 102.072 12.9901C102.072 12.1542 103.156 11.7334 104.864 11.7334C106.474 11.7334 108.422 12.4217 109.567 13.1071L110.732 10.0921C108.999 9.37319 106.915 8.68213 104.159 8.68213C100.545 8.68213 98.2878 10.7943 98.2878 13.3774C98.2878 15.9606 100.146 17.0975 103.83 17.8777C106.689 18.4824 107.464 18.8446 107.464 19.7335C107.464 20.6224 106.315 20.9512 104.769 20.9512C102.763 20.9512 100.837 20.2825 99.0178 19.5022L97.9199 22.4392C100.093 23.448 102.347 24.256 105.036 24.256C109.517 24.256 111.342 22.1132 111.342 19.6193C111.342 17.3984 109.804 15.6875 106.07 14.8738ZM93.1157 17.429V9.1029H96.805V17.4541C96.805 22.7792 93.6702 24.3313 89.8025 24.3313C85.932 24.3313 82.8027 22.7792 82.8027 17.4541V9.1029H86.4949V17.4318C86.4949 19.9787 87.969 21.0432 89.7997 21.0432C91.6305 21.0432 93.1157 19.9731 93.1157 17.429ZM79.7378 16.345C80.6963 15.6678 81.0586 14.5476 81.0586 13.3132C81.0586 10.9948 79.108 9.1362 76.7116 9.1362H68.0371V23.9466H77.0543V23.9523C79.5845 23.9523 81.6939 21.9962 81.6939 19.6081C81.6939 18.0477 80.7548 16.8939 79.7378 16.345ZM76.7088 12.2655H71.6011V14.7761H76.6782C77.3804 14.7845 77.999 14.2216 77.999 13.5166C77.999 12.8116 77.4083 12.2738 76.7088 12.2655ZM71.6011 20.8201H76.8008C77.6535 20.8201 78.3473 20.1514 78.3473 19.3544C78.3473 18.5547 77.6563 17.9165 76.8008 17.9026H71.6011V20.8201ZM29.126 23.9439L36.6079 9.13633L39.5476 9.1364L47.3193 23.9468H42.8664L38.0847 14.272L36.1871 18.3208H38.2045L39.7901 21.5643H34.6852L33.5678 23.9468L29.126 23.9439ZM66.669 14.0601C66.669 11.3628 64.8216 9.17534 61.0152 9.17534H53.3299V23.9857L56.8939 23.9829L56.891 12.3018H61.2603C62.5533 12.3046 63.0911 13.1015 63.0911 14.0517C63.0911 15.0047 62.5254 15.7682 61.2352 15.7682H58.1784L62.8013 23.9829H66.4572C66.4572 23.9829 63.2945 18.616 63.3112 18.6133C65.5961 17.9027 66.669 16.1695 66.669 14.0601ZM51.7664 23.9522H48.0826V9.14463H51.7664V23.9522Z" fill="#757575"/>
</svg>
