<svg width="154" height="45" viewBox="0 0 154 45" fill="none" xmlns="http://www.w3.org/2000/svg">
<g clip-path="url(#clip0_1949_112243)">
<path d="M39.7543 18.963H35.4133V19.3281C35.5829 19.4471 35.845 19.717 35.845 20.5425V32.4644H39.7543C44.7122 32.4644 47.3106 28.9957 47.3106 25.5667C47.3106 22.2331 44.8586 18.963 39.7543 18.963ZM39.3071 31.2102C38.8599 31.2102 38.4666 31.1705 37.9808 31.0912V20.2329C38.1505 20.217 38.5592 20.1933 38.9524 20.1933C43.2394 20.1933 44.9204 22.503 44.9204 25.6065C44.9204 29.2259 42.6534 31.2102 39.3071 31.2102ZM23.0456 30.5911L21.1565 27.2415C20.8173 26.6383 20.4857 26.2097 19.7531 25.9161C22.0047 25.4716 22.8605 23.9477 22.8605 22.3919C22.8605 20.5981 21.7348 18.963 18.1495 18.963H14.032V19.3281C14.2016 19.4471 14.4637 19.717 14.4637 20.5425V32.4644H16.5995V26.3367H17.309C18.2033 26.3367 18.5041 26.8209 19.1827 28.0115L20.8635 31.0197C21.3724 31.9246 22.4365 32.4644 23.7858 32.4644H24.9115L24.9655 32.0199C24.1174 31.7897 23.4773 31.3452 23.0456 30.5911ZM17.8101 25.1223H16.5919V20.2488C16.8694 20.2329 17.5865 20.2092 17.9026 20.2092C19.5142 20.2092 20.5782 20.9394 20.5782 22.5586C20.5782 24.1618 19.5296 25.1223 17.8101 25.1223ZM12.2354 28.3607L12.5516 28.456L12.3049 31.2658C10.8629 32.2103 9.27458 32.6548 7.59369 32.6548C2.93653 32.6548 0.5 29.2497 0.5 25.7018C0.5 22.0586 3.04448 18.7724 7.532 18.7724C9.29001 18.7724 10.809 19.2725 12.2431 19.963L12.4127 22.8681L12.112 22.9634L12.0581 22.8444C11.1405 20.9553 9.64469 19.8599 7.83272 19.8599C5.30366 19.8599 2.89027 21.995 2.89027 25.6542C2.89027 29.3529 5.38077 31.5436 7.88668 31.5436C9.64469 31.5436 11.102 30.4641 12.112 28.5591L12.2354 28.3607ZM48.4904 18.963H51.0502V32.4644H48.9144V20.5425C48.9144 19.717 48.6522 19.4471 48.4826 19.3281V18.963H48.4904ZM33.8789 29.9403L34.195 30.0593L33.6553 32.4644H26.3766V20.5425C26.3766 19.717 26.1143 19.4471 25.9447 19.3281V18.963H33.2774L33.3314 21.3521H33.0153L32.9767 21.2569C32.7686 20.733 32.3445 20.217 31.4809 20.217H28.5046V24.4317H32.2057V25.6462H28.5046V31.0992C28.9904 31.1546 29.8925 31.2182 30.733 31.2182C33.1464 31.2182 33.4471 30.734 33.8018 30.0832L33.8789 29.9403ZM88.2304 18.963H88.2689V27.9559C88.2689 31.0753 86.3413 32.6548 83.6657 32.6548C80.9363 32.6548 78.9315 31.0197 78.9315 27.6702V20.5425C78.9315 19.717 78.6693 19.4471 78.4997 19.3281V18.963H81.0596V27.6702C81.0596 30.1546 82.2394 31.4087 84.1053 31.4087C85.6937 31.4087 86.8733 30.1149 86.8733 28.0988V20.5504C86.8733 19.725 86.6112 19.4551 86.4416 19.336V18.9709H88.2304V18.963ZM112.418 28.5513C112.418 30.6467 110.899 32.6548 108.247 32.6548C106.805 32.6548 105.425 32.0754 104.561 31.2658L104.315 28.456L104.669 28.337L104.8 28.6464C105.602 30.5355 106.913 31.5357 108.224 31.5357C109.496 31.5357 110.522 30.5514 110.522 29.2259C110.522 28.2655 109.943 27.4956 109.003 26.9558L106.797 25.6859C105.972 25.2255 104.569 24.2571 104.569 22.4712C104.569 20.4869 106.088 18.7724 108.532 18.7724C109.581 18.7724 110.591 19.082 111.524 19.717L111.67 22.1856L111.37 22.2807L111.254 22.0506C110.807 21.1299 110.059 19.8757 108.578 19.8757C107.322 19.8757 106.373 20.7807 106.373 21.8998C106.373 22.8205 107.067 23.3443 107.985 23.8602L110.229 25.1302C111.817 26.0113 112.418 27.2257 112.418 28.5513ZM121.786 29.9403L122.102 30.0593L121.563 32.4644H114.285V20.5425C114.285 19.717 114.023 19.4471 113.853 19.3281V18.963H121.186L121.239 21.3521H120.923L120.884 21.2569C120.676 20.733 120.252 20.217 119.389 20.217H116.412V24.4317H120.113V25.6462H116.412V31.0992C116.898 31.1546 117.8 31.2182 118.641 31.2182C121.054 31.2182 121.355 30.734 121.71 30.0832L121.786 29.9403ZM153.5 29.3052C153.5 29.3847 153.446 29.4561 153.354 29.4561C153.3 29.4561 153.208 29.4402 152.83 29.3371C150.809 28.7973 149.614 28.5116 146.977 28.0274C144.186 25.5272 141.903 23.7492 139.289 21.7648C139.605 23.5586 139.775 25.3446 139.799 27.3686C139.799 27.6782 139.891 27.7733 140.177 27.7575C140.701 27.7019 141.464 27.6623 142.289 27.6623C143.808 27.6623 145.451 27.7813 146.985 28.0274C148.95 29.853 150.763 31.6706 152.058 33.0914C152.097 33.131 152.112 33.1866 152.112 33.2263C152.112 33.3056 152.058 33.3771 151.966 33.3771C151.912 33.3771 151.819 33.3612 151.441 33.258C147.347 32.123 143.662 31.7738 140.723 31.7738C137.824 31.7738 135.673 32.123 134.455 32.3532C134.193 32.4088 134.139 32.3135 134.077 32.0675C132.358 24.2096 128.78 17.0818 124.571 13.2164C124.517 13.1608 124.493 13.0973 124.493 13.0655C124.493 12.9704 124.571 12.8751 124.677 12.8751C124.717 12.8751 124.771 12.8909 124.809 12.9148C129.413 15.2484 133.993 18.0582 139.274 21.7331C138.526 18.0899 137.254 15.0499 135.473 12.7005C135.435 12.6449 135.419 12.6052 135.419 12.5496C135.419 12.4544 135.496 12.375 135.589 12.375C135.627 12.375 135.704 12.3909 135.812 12.4703C142.304 17.05 147.802 21.6775 153.454 29.1703C153.484 29.2101 153.5 29.2656 153.5 29.3052ZM77.3431 28.5513C77.3431 30.6467 75.8241 32.6548 73.1717 32.6548C71.7298 32.6548 70.3497 32.0754 69.4861 31.2658L69.2394 28.456L69.594 28.337L69.7251 28.6464C70.527 30.5355 71.8378 31.5357 73.1486 31.5357C74.4208 31.5357 75.4464 30.5514 75.4464 29.2259C75.4464 28.2655 74.868 27.4956 73.9274 26.9558L71.7222 25.6859C70.8971 25.2255 69.4938 24.2571 69.4938 22.4712C69.4938 20.4869 71.0128 18.7724 73.457 18.7724C74.5057 18.7724 75.5157 19.082 76.4488 19.717L76.5952 22.1856L76.2945 22.2807L76.1789 22.0506C75.7317 21.1299 74.9837 19.8757 73.5033 19.8757C72.2464 19.8757 71.298 20.7807 71.298 21.8998C71.298 22.8205 71.9921 23.3443 72.9096 23.8602L75.1533 25.1302C76.7417 26.0113 77.3431 27.2257 77.3431 28.5513ZM63.0093 18.963L63.0633 21.3521H62.747L62.7086 21.2569C62.5003 20.733 62.0763 20.217 61.2127 20.217H58.9844V32.4644H56.8486V20.217H54.6202C53.7566 20.217 53.3326 20.741 53.1243 21.2569L53.0858 21.3521H52.7696L52.8236 18.963H63.0093ZM103.027 28.5513C103.027 30.6467 101.508 32.6548 98.8555 32.6548C97.4136 32.6548 96.0334 32.0754 95.1699 31.2658L94.9232 28.456L95.2778 28.337L95.4089 28.6464C96.2108 30.5355 97.5216 31.5357 98.8323 31.5357C100.105 31.5357 101.13 30.5514 101.13 29.2259C101.13 28.2655 100.552 27.4956 99.6112 26.9558L97.4059 25.6859C96.5809 25.2255 95.1775 24.2571 95.1775 22.4712C95.1775 20.4869 96.6965 18.7724 99.1408 18.7724C100.189 18.7724 101.2 19.082 102.132 19.717L102.279 22.1856L101.978 22.2807L101.863 22.0506C101.415 21.1299 100.667 19.8757 99.187 19.8757C97.9302 19.8757 96.9818 20.7807 96.9818 21.8998C96.9818 22.8205 97.6758 23.3443 98.5934 23.8602L100.837 25.1302C102.425 26.0113 103.027 27.2257 103.027 28.5513ZM90.3816 18.963H92.9415V32.4644H90.8057V20.5425C90.8057 19.717 90.5435 19.4471 90.3739 19.3281V18.963H90.3816Z" fill="#757575"/>
</g>
<defs>
<clipPath id="clip0_1949_112243">
<rect width="153" height="45" fill="white" transform="translate(0.5)"/>
</clipPath>
</defs>
</svg>
