<svg width="136" height="40" viewBox="0 0 136 40" fill="none" xmlns="http://www.w3.org/2000/svg">
<path fill-rule="evenodd" clip-rule="evenodd" d="M108.559 5C100.033 5 93.1191 9.46815 93.1191 20.1111C93.1191 30.733 100.033 35.2223 108.559 35.2222C117.086 35.2222 124 30.733 124 20.1111C124 9.46815 117.086 5 108.559 5ZM78.0414 5.19748C77.6853 5.20403 77.4817 5.2304 77.4817 5.2304C62.181 5.2304 62.9303 20.3415 62.9303 20.3415C62.9303 34.3807 74.8519 35.4197 78.4035 35.4197C82.4042 35.4197 85.1815 35.0457 91.5064 34.3662C91.5249 34.3636 91.5064 18.6625 91.5064 18.6625H78.6011V24.2592H83.6381V29.3292C73.6575 31.7246 71.2924 26.4821 71.2924 20.5061C71.2924 11.5237 76.3927 11.3868 78.6011 11.3868C83.1259 11.3868 83.6381 14.7448 83.6381 14.7448H91.5064C90.5892 5.54629 80.5342 5.15166 78.0414 5.19748ZM12 5.79011V34.893H34.3869V28.7696H19.8354V23.1728H33.2675V17.5432H19.8354V11.9465H34.3869V5.79011H12ZM36.6255 5.79011V34.893H44.4609V24.2593H47.2592L54.502 34.893H63.4568L55.6214 23.6667C61.862 22.3498 61.8107 15.3045 61.8107 15.3045C61.8107 5.38451 51.3744 5.79011 51.3744 5.79011H36.6255ZM108.56 11.0247C113.84 11.0247 115.506 15.1004 115.506 20.1111C115.506 25.1231 113.84 29.1646 108.56 29.1646C103.245 29.1646 101.613 25.1231 101.613 20.1111C101.613 15.1004 103.245 11.0247 108.56 11.0247ZM44.4607 11.9465H50.617C50.617 11.9465 54.5124 11.9729 54.5347 15.3045C54.5624 19.3552 50.617 19.2552 50.617 19.2552H44.4607V11.9465Z" fill="#757575"/>
</svg>
