<svg width="121" height="32" viewBox="0 0 121 32" fill="none" xmlns="http://www.w3.org/2000/svg">
<path d="M108.4 3.85422H114.164V9.65804H119.883V14.4299H114.164V22.3269C114.164 25.5033 115.456 26.2278 117.769 26.2278C118.699 26.2284 119.622 26.0725 120.5 25.7667V30.4874C120.5 30.4874 119.575 31.2193 116.946 31.2193C109.736 31.2193 108.4 27.6257 108.4 23.6223V3.85422ZM85.221 30.8094H91.0433V19.3994C91.0433 16.4206 92.3796 14.1079 95.4486 14.1079C97.967 14.1079 99.2592 15.7034 99.2592 19.0408V30.8094H105.03V17.9722C105.03 12.6368 102.827 8.99203 97.2988 8.99203C94.6263 8.99203 92.3062 10.0167 90.9112 12.2269V9.65804H85.2504L85.221 30.8094ZM71.6747 8.99203C69.0596 8.99494 66.4644 9.44549 64.0022 10.3241V15.0959C66.1476 14.1601 68.4594 13.6624 70.801 13.6322C74.406 13.6322 76.3076 15.0154 76.3076 18.2503C74.7494 17.8196 73.1375 17.6126 71.5206 17.6355C66.8877 17.6355 62.5044 20.0507 62.5044 24.7714C62.5044 29.1627 65.6982 31.4461 69.9714 31.4461C72.8054 31.4461 74.9714 30.524 76.4104 28.7235L76.5646 30.7801H81.7042V18.587C81.7188 12.2269 77.9596 8.99203 71.6747 8.99203ZM71.7775 27.1134C69.4574 27.2671 68.0698 26.2937 67.967 24.5957C67.8642 22.6489 69.8172 21.7707 71.9317 21.617C74.7144 21.4633 76.1534 22.444 76.2048 23.8126C76.2856 25.5179 74.9714 26.9597 71.7775 27.1134ZM53.4222 3.34191C53.3879 4.2461 53.7368 5.12296 54.3835 5.75789C55.0303 6.39282 55.9151 6.72723 56.8216 6.67928C58.6706 6.67928 60.1696 5.18509 60.1696 3.34191C60.1696 1.49872 58.6706 0.00452922 56.8216 0.00452922C55.9151 -0.0434149 55.0303 0.290996 54.3835 0.925925C53.7368 1.56085 53.3879 2.43771 53.4222 3.34191ZM53.9361 30.8094H59.8098V9.65804H53.9361V30.8094ZM44.5602 30.8094H50.3825V0.568078H44.5602V30.8094ZM31.1388 8.99203C29.401 9.01311 27.6734 9.25913 25.9993 9.72391L24.1564 14.9422C26.068 14.0879 28.1408 13.6512 30.2357 13.6614C33.8407 13.6614 35.7496 15.0447 35.7496 18.2796C34.1889 17.8489 32.5745 17.6419 30.9552 17.6648C26.359 17.6648 21.9537 20.08 21.9537 24.8007C21.9537 29.1919 25.1476 31.4754 29.4207 31.4754C32.2548 31.4754 34.4134 30.5532 35.8598 28.7528L36.014 30.8094H41.1536V18.587C41.1828 12.2269 37.4236 8.99203 31.1388 8.99203ZM31.2416 27.1134C28.9288 27.2671 27.5338 26.2937 27.431 24.5957C27.3282 22.6489 29.2885 21.7707 31.3957 21.617C34.1784 21.4633 35.6248 22.444 35.6762 23.8126C35.779 25.5179 34.4354 26.9597 31.2416 27.1134ZM8.68649 30.8094H14.7144L22.9596 9.65804H16.8803L11.8289 24.7494L6.93906 9.65804H0.5L8.68649 30.8094Z" fill="#757575"/>
</svg>
